<svg width="62" height="36" viewBox="0 0 62 36" fill="none" xmlns="http://www.w3.org/2000/svg">
<path d="M7.52344 0.875V35H0.515625V0.875H7.52344Z" fill="#141414"/>
<path d="M27.375 29.2812V17.9844C27.375 17.1719 27.2422 16.4766 26.9766 15.8984C26.7109 15.3047 26.2969 14.8438 25.7344 14.5156C25.1875 14.1875 24.4766 14.0234 23.6016 14.0234C22.8516 14.0234 22.2031 14.1562 21.6562 14.4219C21.1094 14.6719 20.6875 15.0391 20.3906 15.5234C20.0938 15.9922 19.9453 16.5469 19.9453 17.1875H13.1953C13.1953 16.1094 13.4453 15.0859 13.9453 14.1172C14.4453 13.1484 15.1719 12.2969 16.125 11.5625C17.0781 10.8125 18.2109 10.2266 19.5234 9.80469C20.8516 9.38281 22.3359 9.17188 23.9766 9.17188C25.9453 9.17188 27.6953 9.5 29.2266 10.1562C30.7578 10.8125 31.9609 11.7969 32.8359 13.1094C33.7266 14.4219 34.1719 16.0625 34.1719 18.0312V28.8828C34.1719 30.2734 34.2578 31.4141 34.4297 32.3047C34.6016 33.1797 34.8516 33.9453 35.1797 34.6016V35H28.3594C28.0312 34.3125 27.7812 33.4531 27.6094 32.4219C27.4531 31.375 27.375 30.3281 27.375 29.2812ZM28.2656 19.5547L28.3125 23.375H24.5391C23.6484 23.375 22.875 23.4766 22.2188 23.6797C21.5625 23.8828 21.0234 24.1719 20.6016 24.5469C20.1797 24.9062 19.8672 25.3281 19.6641 25.8125C19.4766 26.2969 19.3828 26.8281 19.3828 27.4062C19.3828 27.9844 19.5156 28.5078 19.7812 28.9766C20.0469 29.4297 20.4297 29.7891 20.9297 30.0547C21.4297 30.3047 22.0156 30.4297 22.6875 30.4297C23.7031 30.4297 24.5859 30.2266 25.3359 29.8203C26.0859 29.4141 26.6641 28.9141 27.0703 28.3203C27.4922 27.7266 27.7109 27.1641 27.7266 26.6328L29.5078 29.4922C29.2578 30.1328 28.9141 30.7969 28.4766 31.4844C28.0547 32.1719 27.5156 32.8203 26.8594 33.4297C26.2031 34.0234 25.4141 34.5156 24.4922 34.9062C23.5703 35.2812 22.4766 35.4688 21.2109 35.4688C19.6016 35.4688 18.1406 35.1484 16.8281 34.5078C15.5312 33.8516 14.5 32.9531 13.7344 31.8125C12.9844 30.6562 12.6094 29.3438 12.6094 27.875C12.6094 26.5469 12.8594 25.3672 13.3594 24.3359C13.8594 23.3047 14.5938 22.4375 15.5625 21.7344C16.5469 21.0156 17.7734 20.4766 19.2422 20.1172C20.7109 19.7422 22.4141 19.5547 24.3516 19.5547H28.2656Z" fill="#141414"/>
<path d="M45.9844 15.0547V35H39.2344V9.64062H45.5625L45.9844 15.0547ZM45 21.4297H43.1719C43.1719 19.5547 43.4141 17.8672 43.8984 16.3672C44.3828 14.8516 45.0625 13.5625 45.9375 12.5C46.8125 11.4219 47.8516 10.6016 49.0547 10.0391C50.2734 9.46094 51.6328 9.17188 53.1328 9.17188C54.3203 9.17188 55.4062 9.34375 56.3906 9.6875C57.375 10.0312 58.2188 10.5781 58.9219 11.3281C59.6406 12.0781 60.1875 13.0703 60.5625 14.3047C60.9531 15.5391 61.1484 17.0469 61.1484 18.8281V35H54.3516V18.8047C54.3516 17.6797 54.1953 16.8047 53.8828 16.1797C53.5703 15.5547 53.1094 15.1172 52.5 14.8672C51.9062 14.6016 51.1719 14.4688 50.2969 14.4688C49.3906 14.4688 48.6016 14.6484 47.9297 15.0078C47.2734 15.3672 46.7266 15.8672 46.2891 16.5078C45.8672 17.1328 45.5469 17.8672 45.3281 18.7109C45.1094 19.5547 45 20.4609 45 21.4297Z" fill="#141414"/>
</svg>
