<svg width="24" height="24" viewBox="0 0 24 24" fill="none" xmlns="http://www.w3.org/2000/svg">
<mask id="mask0_21_512" style="mask-type:alpha" maskUnits="userSpaceOnUse" x="0" y="0" width="24" height="24">
<rect width="24" height="24" fill="#D9D9D9"/>
</mask>
<g mask="url(#mask0_21_512)">
<path d="M3 21V6C3 5.45 3.19567 4.97933 3.587 4.588C3.979 4.196 4.45 4 5 4H17C17.55 4 18.021 4.196 18.413 4.588C18.8043 4.97933 19 5.45 19 6V11.075C18.8333 11.0417 18.671 11.0207 18.513 11.012C18.3543 11.004 18.1833 11 18 11C17.8167 11 17.646 11.004 17.488 11.012C17.3293 11.0207 17.1667 11.0417 17 11.075V6H5V16H12.075C12.0417 16.1667 12.0207 16.3293 12.012 16.488C12.004 16.646 12 16.8167 12 17C12 17.1833 12.004 17.354 12.012 17.512C12.0207 17.6707 12.0417 17.8333 12.075 18H6L3 21ZM7 10V8H15V10H7ZM7 14V12H12V14H7ZM17 21V18H14V16H17V13H19V16H22V18H19V21H17Z" fill="url(#paint0_linear_21_512)"/>
</g>
<defs>
<linearGradient id="paint0_linear_21_512" x1="22" y1="12.4993" x2="3.47501" y2="12.4993" gradientUnits="userSpaceOnUse">
<stop stop-color="#ECCB8B"/>
<stop offset="1" stop-color="#D7A86E"/>
</linearGradient>
</defs>
</svg>
