<svg width="40" height="40" viewBox="0 0 40 40" fill="none" xmlns="http://www.w3.org/2000/svg">
<mask id="mask0_21_494" style="mask-type:alpha" maskUnits="userSpaceOnUse" x="0" y="0" width="40" height="40">
<rect width="40" height="40" fill="#D9D9D9"/>
</mask>
<g mask="url(#mask0_21_494)">
<path d="M20.375 30.209C20.153 30.209 19.9517 30.188 19.771 30.146C19.5903 30.1047 19.4167 30.0143 19.25 29.875C15.778 27.181 13.2017 24.584 11.521 22.084C9.84033 19.584 9 17.0977 9 14.625C9 12.7083 9.34033 11.028 10.021 9.584C10.7017 8.13933 11.5903 6.924 12.687 5.938C13.7843 4.952 15.0067 4.216 16.354 3.73C17.7013 3.24333 19.0417 3 20.375 3C21.7083 3 23.0487 3.24333 24.396 3.73C25.7433 4.216 26.9657 4.952 28.063 5.938C29.1597 6.924 30.0483 8.13933 30.729 9.584C31.4097 11.028 31.75 12.7083 31.75 14.625C31.75 17.0977 30.9097 19.584 29.229 22.084C27.5483 24.584 24.972 27.181 21.5 29.875C21.3333 30.0143 21.1527 30.1047 20.958 30.146C20.764 30.188 20.5697 30.209 20.375 30.209ZM20.375 17.459C21.2083 17.459 21.9237 17.1603 22.521 16.563C23.1183 15.9657 23.417 15.2363 23.417 14.375C23.417 13.5417 23.1183 12.8267 22.521 12.23C21.9237 11.6327 21.2083 11.334 20.375 11.334C19.5417 11.334 18.8263 11.6327 18.229 12.23C17.6317 12.8267 17.333 13.5417 17.333 14.375C17.333 15.2363 17.6317 15.9657 18.229 16.563C18.8263 17.1603 19.5417 17.459 20.375 17.459ZM10.375 36.334C9.98633 36.334 9.66 36.202 9.396 35.938C9.132 35.674 9 35.3477 9 34.959C9 34.5423 9.132 34.202 9.396 33.938C9.66 33.674 9.98633 33.542 10.375 33.542H30.375C30.7637 33.542 31.09 33.681 31.354 33.959C31.618 34.2363 31.75 34.5697 31.75 34.959C31.75 35.3477 31.618 35.674 31.354 35.938C31.09 36.202 30.7637 36.334 30.375 36.334H10.375Z" fill="url(#paint0_linear_21_494)"/>
</g>
<defs>
<linearGradient id="paint0_linear_21_494" x1="20.375" y1="0.166992" x2="20.3728" y2="36.667" gradientUnits="userSpaceOnUse">
<stop stop-color="#ECCB8B"/>
<stop offset="1" stop-color="#D7A86E"/>
</linearGradient>
</defs>
</svg>
