<svg width="63" height="35" viewBox="0 0 63 35" fill="none" xmlns="http://www.w3.org/2000/svg">
<path d="M7.99212 0.736V34H0.120117V0.736H7.99212Z" fill="#141414"/>
<path d="M34.2946 26.608C34.2946 27.568 34.4226 28.272 34.6786 28.72C34.9666 29.168 35.4146 29.504 36.0226 29.728L34.4386 34.672C32.8706 34.544 31.5906 34.208 30.5986 33.664C29.6066 33.088 28.8386 32.192 28.2946 30.976C26.6306 33.536 24.0706 34.816 20.6146 34.816C18.0866 34.816 16.0706 34.08 14.5666 32.608C13.0626 31.136 12.3106 29.216 12.3106 26.848C12.3106 24.064 13.3346 21.936 15.3826 20.464C17.4306 18.992 20.3906 18.256 24.2626 18.256H26.8546V17.152C26.8546 15.648 26.5346 14.624 25.8946 14.08C25.2546 13.504 24.1346 13.216 22.5346 13.216C21.7026 13.216 20.6946 13.344 19.5106 13.6C18.3266 13.824 17.1106 14.144 15.8626 14.56L14.1346 9.568C15.7346 8.96 17.3666 8.496 19.0306 8.176C20.7266 7.856 22.2946 7.696 23.7346 7.696C27.3826 7.696 30.0546 8.448 31.7506 9.952C33.4466 11.456 34.2946 13.712 34.2946 16.72V26.608ZM22.8226 29.392C24.5506 29.392 25.8946 28.576 26.8546 26.944V22.432H24.9826C23.2546 22.432 21.9586 22.736 21.0946 23.344C20.2626 23.952 19.8466 24.896 19.8466 26.176C19.8466 27.2 20.1026 28 20.6146 28.576C21.1586 29.12 21.8946 29.392 22.8226 29.392Z" fill="#141414"/>
<path d="M55.2635 7.696C57.4715 7.696 59.1995 8.368 60.4475 9.712C61.6955 11.056 62.3195 12.944 62.3195 15.376V34H54.7355V16.672C54.7355 15.392 54.5275 14.512 54.1115 14.032C53.7275 13.52 53.1355 13.264 52.3355 13.264C50.7995 13.264 49.3275 14.368 47.9195 16.576V34H40.3355V8.512H46.9595L47.4875 11.536C48.5755 10.256 49.7435 9.296 50.9915 8.656C52.2715 8.016 53.6955 7.696 55.2635 7.696Z" fill="#141414"/>
</svg>
